<!-- This version uses a lighter shade (#8ED2DE) for the wave so white text is easier to see -->
<svg viewBox="0 0 1440 320" xmlns="http://www.w3.org/2000/svg">
  <path fill="#8ED2DE" fill-opacity="1" d="M0,256L40,224C80,192,160,128,240,122.7C320,117,400,171,480,186.7C560,203,640,181,720,192C800,203,880,245,960,272C1040,299,1120,309,1200,282.7C1280,256,1360,192,1400,160L1440,128L1440,320L1400,320C1360,320,1280,320,1200,320C1120,320,1040,320,960,320C880,320,800,320,720,320C640,320,560,320,480,320C400,320,320,320,240,320C160,320,80,320,40,320L0,320Z"/>
</svg>
